{"title":"Every Day (2010) DvdRip [Xvid] {1337x}-X","uid":6203975,"size":734015488,"categoryP":"video","categoryS":"movies","magnet":"?xt=urn:btih:2111f1761a040e43a6656fabaf7629fd40c61f64&amp;dn=Every+Day+%282010%29+DvdRip+%5BXvid%5D+%7B1337x%7D-X&amp;tr=udp%3A%2F%2Ftracker.openbittorrent.com%3A80&amp;tr=udp%3A%2F%2Fopen.demonii.com%3A1337&amp;tr=udp%3A%2F%2Ftracker.coppersurfer.tk%3A6969&amp;tr=udp%3A%2F%2Fexodus.desync.com%3A6969","seeders":1,"leechers":0,"uploader":"hiest","files":-1,"time":1298681182,"description":"Video\n\nCodec ID : XVID\nCodec ID/Hint : XviD\nDuration : 1h 33mn\nBit rate : 934 Kbps\nWidth : 656 pixels\nHeight : 352 pixels\nDisplay aspect ratio : 1.864\nFrame rate : 23.976 fps\nColor space : YUV\nChroma subsampling : 4:2:0\nBit depth : 8 bits\nScan type : Progressive\nBits/(Pixel*Frame) : 0.169\nStream size : 624 MiB (89%)\nWriting library : XviD 57\n\n\n\nAudio\nID : 1\nFormat : MPEG Audio\nFormat version : Version 1\nFormat profile : Layer 3\nMode : Joint stereo\nMode extension : MS Stereo\nCodec ID : 55\nCodec ID/Hint : MP3\nDuration : 1h 33mn\nBit rate mode : Variable\nBit rate : 102 Kbps\nNominal bit rate : 112 Kbps\nChannel(s) : 2 channels\nSampling rate : 48.0 KHz\nStream size : 67.9 MiB (10%)\nAlignment : Aligned on interleaves\nInterleave, duration : 24 ms (0.58 video frame)\nInterleave, preload duration : 181 ms\nWriting library : LAME3.97\n\nIMDB &lt;a href=&quot;\nhttp://www.imdb.com/title/tt1301990/&quot; rel=&quot;nofollow&quot; target=&quot;_NEW&quot;&gt;\nhttp://www.imdb.com/title/tt1301990/&lt;/a&gt;\n\n\n\n\n\n\n\n================================== &lt;a href=&quot;\nhttp://thepiratebay.se/user/hiest&quot; rel=&quot;nofollow&quot; target=&quot;_NEW&quot;&gt;\nhttp://thepiratebay.se/user/hiest&lt;/a&gt;\n==================================\n\n\n\n\n\n\n\nScreen Shots:\n &lt;a href=&quot;\nhttp://leetleech.org/images/16991004896353430326.png&quot; rel=&quot;nofollow&quot; target=&quot;_NEW&quot;&gt;\nhttp://leetleech.org/images/16991004896353430326.png&lt;/a&gt;\n &lt;a href=&quot;\nhttp://leetleech.org/images/28231462756319201872.png&quot; rel=&quot;nofollow&quot; target=&quot;_NEW&quot;&gt;\nhttp://leetleech.org/images/28231462756319201872.png&lt;/a&gt;\n &lt;a href=&quot;\nhttp://leetleech.org/images/76706946490764922243.png&quot; rel=&quot;nofollow&quot; target=&quot;_NEW&quot;&gt;\nhttp://leetleech.org/images/76706946490764922243.png&lt;/a&gt;","torrent":{"xt":"urn:btih:2111f1761a040e43a6656fabaf7629fd40c61f64","amp;dn":"Every+Day+%282010%29+DvdRip+%5BXvid%5D+%7B1337x%7D-X","amp;tr":["udp%3A%2F%2Ftracker.openbittorrent.com%3A80","udp%3A%2F%2Fopen.demonii.com%3A1337","udp%3A%2F%2Ftracker.coppersurfer.tk%3A6969","udp%3A%2F%2Fexodus.desync.com%3A6969"],"infoHash":"2111f1761a040e43a6656fabaf7629fd40c61f64","infoHashBuffer":{"type":"Buffer","data":[33,17,241,118,26,4,14,67,166,101,111,171,175,118,41,253,64,198,31,100]},"announce":[],"urlList":[]}}